%TF.GenerationSoftware,KiCad,Pcbnew,9.0.3*%
%TF.CreationDate,2025-09-20T16:11:44+08:00*%
%TF.ProjectId,Atari2600_2TransistorCompMod,41746172-6932-4363-9030-5f325472616e,rev?*%
%TF.SameCoordinates,Original*%
%TF.FileFunction,Legend,Top*%
%TF.FilePolarity,Positive*%
%FSLAX46Y46*%
G04 Gerber Fmt 4.6, Leading zero omitted, Abs format (unit mm)*
G04 Created by KiCad (PCBNEW 9.0.3) date 2025-09-20 16:11:44*
%MOMM*%
%LPD*%
G01*
G04 APERTURE LIST*
G04 Aperture macros list*
%AMRoundRect*
0 Rectangle with rounded corners*
0 $1 Rounding radius*
0 $2 $3 $4 $5 $6 $7 $8 $9 X,Y pos of 4 corners*
0 Add a 4 corners polygon primitive as box body*
4,1,4,$2,$3,$4,$5,$6,$7,$8,$9,$2,$3,0*
0 Add four circle primitives for the rounded corners*
1,1,$1+$1,$2,$3*
1,1,$1+$1,$4,$5*
1,1,$1+$1,$6,$7*
1,1,$1+$1,$8,$9*
0 Add four rect primitives between the rounded corners*
20,1,$1+$1,$2,$3,$4,$5,0*
20,1,$1+$1,$4,$5,$6,$7,0*
20,1,$1+$1,$6,$7,$8,$9,0*
20,1,$1+$1,$8,$9,$2,$3,0*%
G04 Aperture macros list end*
%ADD10C,0.250000*%
%ADD11C,0.200000*%
%ADD12C,0.150000*%
%ADD13C,0.120000*%
%ADD14C,0.010000*%
%ADD15R,1.700000X1.700000*%
%ADD16C,1.700000*%
%ADD17RoundRect,0.200000X0.275000X-0.200000X0.275000X0.200000X-0.275000X0.200000X-0.275000X-0.200000X0*%
%ADD18RoundRect,0.225000X0.250000X-0.225000X0.250000X0.225000X-0.250000X0.225000X-0.250000X-0.225000X0*%
%ADD19RoundRect,0.200000X-0.275000X0.200000X-0.275000X-0.200000X0.275000X-0.200000X0.275000X0.200000X0*%
%ADD20C,1.440000*%
%ADD21RoundRect,0.150000X0.150000X-0.587500X0.150000X0.587500X-0.150000X0.587500X-0.150000X-0.587500X0*%
G04 APERTURE END LIST*
D10*
X91701904Y-60965238D02*
X91606666Y-60917619D01*
X91606666Y-60917619D02*
X91463809Y-60917619D01*
X91463809Y-60917619D02*
X91320952Y-60965238D01*
X91320952Y-60965238D02*
X91225714Y-61060476D01*
X91225714Y-61060476D02*
X91178095Y-61155714D01*
X91178095Y-61155714D02*
X91130476Y-61346190D01*
X91130476Y-61346190D02*
X91130476Y-61489047D01*
X91130476Y-61489047D02*
X91178095Y-61679523D01*
X91178095Y-61679523D02*
X91225714Y-61774761D01*
X91225714Y-61774761D02*
X91320952Y-61870000D01*
X91320952Y-61870000D02*
X91463809Y-61917619D01*
X91463809Y-61917619D02*
X91559047Y-61917619D01*
X91559047Y-61917619D02*
X91701904Y-61870000D01*
X91701904Y-61870000D02*
X91749523Y-61822380D01*
X91749523Y-61822380D02*
X91749523Y-61489047D01*
X91749523Y-61489047D02*
X91559047Y-61489047D01*
X91701904Y-66045238D02*
X91606666Y-65997619D01*
X91606666Y-65997619D02*
X91463809Y-65997619D01*
X91463809Y-65997619D02*
X91320952Y-66045238D01*
X91320952Y-66045238D02*
X91225714Y-66140476D01*
X91225714Y-66140476D02*
X91178095Y-66235714D01*
X91178095Y-66235714D02*
X91130476Y-66426190D01*
X91130476Y-66426190D02*
X91130476Y-66569047D01*
X91130476Y-66569047D02*
X91178095Y-66759523D01*
X91178095Y-66759523D02*
X91225714Y-66854761D01*
X91225714Y-66854761D02*
X91320952Y-66950000D01*
X91320952Y-66950000D02*
X91463809Y-66997619D01*
X91463809Y-66997619D02*
X91559047Y-66997619D01*
X91559047Y-66997619D02*
X91701904Y-66950000D01*
X91701904Y-66950000D02*
X91749523Y-66902380D01*
X91749523Y-66902380D02*
X91749523Y-66569047D01*
X91749523Y-66569047D02*
X91559047Y-66569047D01*
D11*
X91201905Y-64174504D02*
X91678095Y-64174504D01*
X91106667Y-64460219D02*
X91440000Y-63460219D01*
X91440000Y-63460219D02*
X91773333Y-64460219D01*
D10*
X74792758Y-68968619D02*
X74316568Y-68968619D01*
X74316568Y-68968619D02*
X74268949Y-69444809D01*
X74268949Y-69444809D02*
X74316568Y-69397190D01*
X74316568Y-69397190D02*
X74411806Y-69349571D01*
X74411806Y-69349571D02*
X74649901Y-69349571D01*
X74649901Y-69349571D02*
X74745139Y-69397190D01*
X74745139Y-69397190D02*
X74792758Y-69444809D01*
X74792758Y-69444809D02*
X74840377Y-69540047D01*
X74840377Y-69540047D02*
X74840377Y-69778142D01*
X74840377Y-69778142D02*
X74792758Y-69873380D01*
X74792758Y-69873380D02*
X74745139Y-69921000D01*
X74745139Y-69921000D02*
X74649901Y-69968619D01*
X74649901Y-69968619D02*
X74411806Y-69968619D01*
X74411806Y-69968619D02*
X74316568Y-69921000D01*
X74316568Y-69921000D02*
X74268949Y-69873380D01*
X75126092Y-68968619D02*
X75459425Y-69968619D01*
X75459425Y-69968619D02*
X75792758Y-68968619D01*
X91701904Y-68585238D02*
X91606666Y-68537619D01*
X91606666Y-68537619D02*
X91463809Y-68537619D01*
X91463809Y-68537619D02*
X91320952Y-68585238D01*
X91320952Y-68585238D02*
X91225714Y-68680476D01*
X91225714Y-68680476D02*
X91178095Y-68775714D01*
X91178095Y-68775714D02*
X91130476Y-68966190D01*
X91130476Y-68966190D02*
X91130476Y-69109047D01*
X91130476Y-69109047D02*
X91178095Y-69299523D01*
X91178095Y-69299523D02*
X91225714Y-69394761D01*
X91225714Y-69394761D02*
X91320952Y-69490000D01*
X91320952Y-69490000D02*
X91463809Y-69537619D01*
X91463809Y-69537619D02*
X91559047Y-69537619D01*
X91559047Y-69537619D02*
X91701904Y-69490000D01*
X91701904Y-69490000D02*
X91749523Y-69442380D01*
X91749523Y-69442380D02*
X91749523Y-69109047D01*
X91749523Y-69109047D02*
X91559047Y-69109047D01*
X76459711Y-68968619D02*
X76793044Y-69968619D01*
X76793044Y-69968619D02*
X77126377Y-68968619D01*
X77459711Y-69968619D02*
X77459711Y-69301952D01*
X77459711Y-68968619D02*
X77412092Y-69016238D01*
X77412092Y-69016238D02*
X77459711Y-69063857D01*
X77459711Y-69063857D02*
X77507330Y-69016238D01*
X77507330Y-69016238D02*
X77459711Y-68968619D01*
X77459711Y-68968619D02*
X77459711Y-69063857D01*
X78364472Y-69968619D02*
X78364472Y-68968619D01*
X78364472Y-69921000D02*
X78269234Y-69968619D01*
X78269234Y-69968619D02*
X78078758Y-69968619D01*
X78078758Y-69968619D02*
X77983520Y-69921000D01*
X77983520Y-69921000D02*
X77935901Y-69873380D01*
X77935901Y-69873380D02*
X77888282Y-69778142D01*
X77888282Y-69778142D02*
X77888282Y-69492428D01*
X77888282Y-69492428D02*
X77935901Y-69397190D01*
X77935901Y-69397190D02*
X77983520Y-69349571D01*
X77983520Y-69349571D02*
X78078758Y-69301952D01*
X78078758Y-69301952D02*
X78269234Y-69301952D01*
X78269234Y-69301952D02*
X78364472Y-69349571D01*
X89908191Y-58377619D02*
X90241524Y-59377619D01*
X90241524Y-59377619D02*
X90574857Y-58377619D01*
X90908191Y-59377619D02*
X90908191Y-58710952D01*
X90908191Y-58377619D02*
X90860572Y-58425238D01*
X90860572Y-58425238D02*
X90908191Y-58472857D01*
X90908191Y-58472857D02*
X90955810Y-58425238D01*
X90955810Y-58425238D02*
X90908191Y-58377619D01*
X90908191Y-58377619D02*
X90908191Y-58472857D01*
X91812952Y-59377619D02*
X91812952Y-58377619D01*
X91812952Y-59330000D02*
X91717714Y-59377619D01*
X91717714Y-59377619D02*
X91527238Y-59377619D01*
X91527238Y-59377619D02*
X91432000Y-59330000D01*
X91432000Y-59330000D02*
X91384381Y-59282380D01*
X91384381Y-59282380D02*
X91336762Y-59187142D01*
X91336762Y-59187142D02*
X91336762Y-58901428D01*
X91336762Y-58901428D02*
X91384381Y-58806190D01*
X91384381Y-58806190D02*
X91432000Y-58758571D01*
X91432000Y-58758571D02*
X91527238Y-58710952D01*
X91527238Y-58710952D02*
X91717714Y-58710952D01*
X91717714Y-58710952D02*
X91812952Y-58758571D01*
D11*
X91201905Y-71794504D02*
X91678095Y-71794504D01*
X91106667Y-72080219D02*
X91440000Y-71080219D01*
X91440000Y-71080219D02*
X91773333Y-72080219D01*
D10*
X70014377Y-69016238D02*
X69919139Y-68968619D01*
X69919139Y-68968619D02*
X69776282Y-68968619D01*
X69776282Y-68968619D02*
X69633425Y-69016238D01*
X69633425Y-69016238D02*
X69538187Y-69111476D01*
X69538187Y-69111476D02*
X69490568Y-69206714D01*
X69490568Y-69206714D02*
X69442949Y-69397190D01*
X69442949Y-69397190D02*
X69442949Y-69540047D01*
X69442949Y-69540047D02*
X69490568Y-69730523D01*
X69490568Y-69730523D02*
X69538187Y-69825761D01*
X69538187Y-69825761D02*
X69633425Y-69921000D01*
X69633425Y-69921000D02*
X69776282Y-69968619D01*
X69776282Y-69968619D02*
X69871520Y-69968619D01*
X69871520Y-69968619D02*
X70014377Y-69921000D01*
X70014377Y-69921000D02*
X70061996Y-69873380D01*
X70061996Y-69873380D02*
X70061996Y-69540047D01*
X70061996Y-69540047D02*
X69871520Y-69540047D01*
D12*
X77924819Y-66968666D02*
X77448628Y-67301999D01*
X77924819Y-67540094D02*
X76924819Y-67540094D01*
X76924819Y-67540094D02*
X76924819Y-67159142D01*
X76924819Y-67159142D02*
X76972438Y-67063904D01*
X76972438Y-67063904D02*
X77020057Y-67016285D01*
X77020057Y-67016285D02*
X77115295Y-66968666D01*
X77115295Y-66968666D02*
X77258152Y-66968666D01*
X77258152Y-66968666D02*
X77353390Y-67016285D01*
X77353390Y-67016285D02*
X77401009Y-67063904D01*
X77401009Y-67063904D02*
X77448628Y-67159142D01*
X77448628Y-67159142D02*
X77448628Y-67540094D01*
X77924819Y-66016285D02*
X77924819Y-66587713D01*
X77924819Y-66301999D02*
X76924819Y-66301999D01*
X76924819Y-66301999D02*
X77067676Y-66397237D01*
X77067676Y-66397237D02*
X77162914Y-66492475D01*
X77162914Y-66492475D02*
X77210533Y-66587713D01*
X79702819Y-66968666D02*
X79226628Y-67301999D01*
X79702819Y-67540094D02*
X78702819Y-67540094D01*
X78702819Y-67540094D02*
X78702819Y-67159142D01*
X78702819Y-67159142D02*
X78750438Y-67063904D01*
X78750438Y-67063904D02*
X78798057Y-67016285D01*
X78798057Y-67016285D02*
X78893295Y-66968666D01*
X78893295Y-66968666D02*
X79036152Y-66968666D01*
X79036152Y-66968666D02*
X79131390Y-67016285D01*
X79131390Y-67016285D02*
X79179009Y-67063904D01*
X79179009Y-67063904D02*
X79226628Y-67159142D01*
X79226628Y-67159142D02*
X79226628Y-67540094D01*
X78798057Y-66587713D02*
X78750438Y-66540094D01*
X78750438Y-66540094D02*
X78702819Y-66444856D01*
X78702819Y-66444856D02*
X78702819Y-66206761D01*
X78702819Y-66206761D02*
X78750438Y-66111523D01*
X78750438Y-66111523D02*
X78798057Y-66063904D01*
X78798057Y-66063904D02*
X78893295Y-66016285D01*
X78893295Y-66016285D02*
X78988533Y-66016285D01*
X78988533Y-66016285D02*
X79131390Y-66063904D01*
X79131390Y-66063904D02*
X79702819Y-66635332D01*
X79702819Y-66635332D02*
X79702819Y-66016285D01*
X76051580Y-66968666D02*
X76099200Y-67016285D01*
X76099200Y-67016285D02*
X76146819Y-67159142D01*
X76146819Y-67159142D02*
X76146819Y-67254380D01*
X76146819Y-67254380D02*
X76099200Y-67397237D01*
X76099200Y-67397237D02*
X76003961Y-67492475D01*
X76003961Y-67492475D02*
X75908723Y-67540094D01*
X75908723Y-67540094D02*
X75718247Y-67587713D01*
X75718247Y-67587713D02*
X75575390Y-67587713D01*
X75575390Y-67587713D02*
X75384914Y-67540094D01*
X75384914Y-67540094D02*
X75289676Y-67492475D01*
X75289676Y-67492475D02*
X75194438Y-67397237D01*
X75194438Y-67397237D02*
X75146819Y-67254380D01*
X75146819Y-67254380D02*
X75146819Y-67159142D01*
X75146819Y-67159142D02*
X75194438Y-67016285D01*
X75194438Y-67016285D02*
X75242057Y-66968666D01*
X76146819Y-66016285D02*
X76146819Y-66587713D01*
X76146819Y-66301999D02*
X75146819Y-66301999D01*
X75146819Y-66301999D02*
X75289676Y-66397237D01*
X75289676Y-66397237D02*
X75384914Y-66492475D01*
X75384914Y-66492475D02*
X75432533Y-66587713D01*
X90370819Y-66968666D02*
X89894628Y-67301999D01*
X90370819Y-67540094D02*
X89370819Y-67540094D01*
X89370819Y-67540094D02*
X89370819Y-67159142D01*
X89370819Y-67159142D02*
X89418438Y-67063904D01*
X89418438Y-67063904D02*
X89466057Y-67016285D01*
X89466057Y-67016285D02*
X89561295Y-66968666D01*
X89561295Y-66968666D02*
X89704152Y-66968666D01*
X89704152Y-66968666D02*
X89799390Y-67016285D01*
X89799390Y-67016285D02*
X89847009Y-67063904D01*
X89847009Y-67063904D02*
X89894628Y-67159142D01*
X89894628Y-67159142D02*
X89894628Y-67540094D01*
X89799390Y-66397237D02*
X89751771Y-66492475D01*
X89751771Y-66492475D02*
X89704152Y-66540094D01*
X89704152Y-66540094D02*
X89608914Y-66587713D01*
X89608914Y-66587713D02*
X89561295Y-66587713D01*
X89561295Y-66587713D02*
X89466057Y-66540094D01*
X89466057Y-66540094D02*
X89418438Y-66492475D01*
X89418438Y-66492475D02*
X89370819Y-66397237D01*
X89370819Y-66397237D02*
X89370819Y-66206761D01*
X89370819Y-66206761D02*
X89418438Y-66111523D01*
X89418438Y-66111523D02*
X89466057Y-66063904D01*
X89466057Y-66063904D02*
X89561295Y-66016285D01*
X89561295Y-66016285D02*
X89608914Y-66016285D01*
X89608914Y-66016285D02*
X89704152Y-66063904D01*
X89704152Y-66063904D02*
X89751771Y-66111523D01*
X89751771Y-66111523D02*
X89799390Y-66206761D01*
X89799390Y-66206761D02*
X89799390Y-66397237D01*
X89799390Y-66397237D02*
X89847009Y-66492475D01*
X89847009Y-66492475D02*
X89894628Y-66540094D01*
X89894628Y-66540094D02*
X89989866Y-66587713D01*
X89989866Y-66587713D02*
X90180342Y-66587713D01*
X90180342Y-66587713D02*
X90275580Y-66540094D01*
X90275580Y-66540094D02*
X90323200Y-66492475D01*
X90323200Y-66492475D02*
X90370819Y-66397237D01*
X90370819Y-66397237D02*
X90370819Y-66206761D01*
X90370819Y-66206761D02*
X90323200Y-66111523D01*
X90323200Y-66111523D02*
X90275580Y-66063904D01*
X90275580Y-66063904D02*
X90180342Y-66016285D01*
X90180342Y-66016285D02*
X89989866Y-66016285D01*
X89989866Y-66016285D02*
X89894628Y-66063904D01*
X89894628Y-66063904D02*
X89847009Y-66111523D01*
X89847009Y-66111523D02*
X89799390Y-66206761D01*
X85036819Y-66968666D02*
X84560628Y-67301999D01*
X85036819Y-67540094D02*
X84036819Y-67540094D01*
X84036819Y-67540094D02*
X84036819Y-67159142D01*
X84036819Y-67159142D02*
X84084438Y-67063904D01*
X84084438Y-67063904D02*
X84132057Y-67016285D01*
X84132057Y-67016285D02*
X84227295Y-66968666D01*
X84227295Y-66968666D02*
X84370152Y-66968666D01*
X84370152Y-66968666D02*
X84465390Y-67016285D01*
X84465390Y-67016285D02*
X84513009Y-67063904D01*
X84513009Y-67063904D02*
X84560628Y-67159142D01*
X84560628Y-67159142D02*
X84560628Y-67540094D01*
X84036819Y-66063904D02*
X84036819Y-66540094D01*
X84036819Y-66540094D02*
X84513009Y-66587713D01*
X84513009Y-66587713D02*
X84465390Y-66540094D01*
X84465390Y-66540094D02*
X84417771Y-66444856D01*
X84417771Y-66444856D02*
X84417771Y-66206761D01*
X84417771Y-66206761D02*
X84465390Y-66111523D01*
X84465390Y-66111523D02*
X84513009Y-66063904D01*
X84513009Y-66063904D02*
X84608247Y-66016285D01*
X84608247Y-66016285D02*
X84846342Y-66016285D01*
X84846342Y-66016285D02*
X84941580Y-66063904D01*
X84941580Y-66063904D02*
X84989200Y-66111523D01*
X84989200Y-66111523D02*
X85036819Y-66206761D01*
X85036819Y-66206761D02*
X85036819Y-66444856D01*
X85036819Y-66444856D02*
X84989200Y-66540094D01*
X84989200Y-66540094D02*
X84941580Y-66587713D01*
X83258819Y-66968666D02*
X82782628Y-67301999D01*
X83258819Y-67540094D02*
X82258819Y-67540094D01*
X82258819Y-67540094D02*
X82258819Y-67159142D01*
X82258819Y-67159142D02*
X82306438Y-67063904D01*
X82306438Y-67063904D02*
X82354057Y-67016285D01*
X82354057Y-67016285D02*
X82449295Y-66968666D01*
X82449295Y-66968666D02*
X82592152Y-66968666D01*
X82592152Y-66968666D02*
X82687390Y-67016285D01*
X82687390Y-67016285D02*
X82735009Y-67063904D01*
X82735009Y-67063904D02*
X82782628Y-67159142D01*
X82782628Y-67159142D02*
X82782628Y-67540094D01*
X82592152Y-66111523D02*
X83258819Y-66111523D01*
X82211200Y-66349618D02*
X82925485Y-66587713D01*
X82925485Y-66587713D02*
X82925485Y-65968666D01*
X88592819Y-66968666D02*
X88116628Y-67301999D01*
X88592819Y-67540094D02*
X87592819Y-67540094D01*
X87592819Y-67540094D02*
X87592819Y-67159142D01*
X87592819Y-67159142D02*
X87640438Y-67063904D01*
X87640438Y-67063904D02*
X87688057Y-67016285D01*
X87688057Y-67016285D02*
X87783295Y-66968666D01*
X87783295Y-66968666D02*
X87926152Y-66968666D01*
X87926152Y-66968666D02*
X88021390Y-67016285D01*
X88021390Y-67016285D02*
X88069009Y-67063904D01*
X88069009Y-67063904D02*
X88116628Y-67159142D01*
X88116628Y-67159142D02*
X88116628Y-67540094D01*
X87592819Y-66635332D02*
X87592819Y-65968666D01*
X87592819Y-65968666D02*
X88592819Y-66397237D01*
X81480819Y-66968666D02*
X81004628Y-67301999D01*
X81480819Y-67540094D02*
X80480819Y-67540094D01*
X80480819Y-67540094D02*
X80480819Y-67159142D01*
X80480819Y-67159142D02*
X80528438Y-67063904D01*
X80528438Y-67063904D02*
X80576057Y-67016285D01*
X80576057Y-67016285D02*
X80671295Y-66968666D01*
X80671295Y-66968666D02*
X80814152Y-66968666D01*
X80814152Y-66968666D02*
X80909390Y-67016285D01*
X80909390Y-67016285D02*
X80957009Y-67063904D01*
X80957009Y-67063904D02*
X81004628Y-67159142D01*
X81004628Y-67159142D02*
X81004628Y-67540094D01*
X80480819Y-66635332D02*
X80480819Y-66016285D01*
X80480819Y-66016285D02*
X80861771Y-66349618D01*
X80861771Y-66349618D02*
X80861771Y-66206761D01*
X80861771Y-66206761D02*
X80909390Y-66111523D01*
X80909390Y-66111523D02*
X80957009Y-66063904D01*
X80957009Y-66063904D02*
X81052247Y-66016285D01*
X81052247Y-66016285D02*
X81290342Y-66016285D01*
X81290342Y-66016285D02*
X81385580Y-66063904D01*
X81385580Y-66063904D02*
X81433200Y-66111523D01*
X81433200Y-66111523D02*
X81480819Y-66206761D01*
X81480819Y-66206761D02*
X81480819Y-66492475D01*
X81480819Y-66492475D02*
X81433200Y-66587713D01*
X81433200Y-66587713D02*
X81385580Y-66635332D01*
X70524761Y-67742819D02*
X70191428Y-67266628D01*
X69953333Y-67742819D02*
X69953333Y-66742819D01*
X69953333Y-66742819D02*
X70334285Y-66742819D01*
X70334285Y-66742819D02*
X70429523Y-66790438D01*
X70429523Y-66790438D02*
X70477142Y-66838057D01*
X70477142Y-66838057D02*
X70524761Y-66933295D01*
X70524761Y-66933295D02*
X70524761Y-67076152D01*
X70524761Y-67076152D02*
X70477142Y-67171390D01*
X70477142Y-67171390D02*
X70429523Y-67219009D01*
X70429523Y-67219009D02*
X70334285Y-67266628D01*
X70334285Y-67266628D02*
X69953333Y-67266628D01*
X70810476Y-66742819D02*
X71143809Y-67742819D01*
X71143809Y-67742819D02*
X71477142Y-66742819D01*
X72334285Y-67742819D02*
X71762857Y-67742819D01*
X72048571Y-67742819D02*
X72048571Y-66742819D01*
X72048571Y-66742819D02*
X71953333Y-66885676D01*
X71953333Y-66885676D02*
X71858095Y-66980914D01*
X71858095Y-66980914D02*
X71762857Y-67028533D01*
X79904761Y-60415557D02*
X79809523Y-60367938D01*
X79809523Y-60367938D02*
X79714285Y-60272700D01*
X79714285Y-60272700D02*
X79571428Y-60129842D01*
X79571428Y-60129842D02*
X79476190Y-60082223D01*
X79476190Y-60082223D02*
X79380952Y-60082223D01*
X79428571Y-60320319D02*
X79333333Y-60272700D01*
X79333333Y-60272700D02*
X79238095Y-60177461D01*
X79238095Y-60177461D02*
X79190476Y-59986985D01*
X79190476Y-59986985D02*
X79190476Y-59653652D01*
X79190476Y-59653652D02*
X79238095Y-59463176D01*
X79238095Y-59463176D02*
X79333333Y-59367938D01*
X79333333Y-59367938D02*
X79428571Y-59320319D01*
X79428571Y-59320319D02*
X79619047Y-59320319D01*
X79619047Y-59320319D02*
X79714285Y-59367938D01*
X79714285Y-59367938D02*
X79809523Y-59463176D01*
X79809523Y-59463176D02*
X79857142Y-59653652D01*
X79857142Y-59653652D02*
X79857142Y-59986985D01*
X79857142Y-59986985D02*
X79809523Y-60177461D01*
X79809523Y-60177461D02*
X79714285Y-60272700D01*
X79714285Y-60272700D02*
X79619047Y-60320319D01*
X79619047Y-60320319D02*
X79428571Y-60320319D01*
X80809523Y-60320319D02*
X80238095Y-60320319D01*
X80523809Y-60320319D02*
X80523809Y-59320319D01*
X80523809Y-59320319D02*
X80428571Y-59463176D01*
X80428571Y-59463176D02*
X80333333Y-59558414D01*
X80333333Y-59558414D02*
X80238095Y-59606033D01*
X88904761Y-60415557D02*
X88809523Y-60367938D01*
X88809523Y-60367938D02*
X88714285Y-60272700D01*
X88714285Y-60272700D02*
X88571428Y-60129842D01*
X88571428Y-60129842D02*
X88476190Y-60082223D01*
X88476190Y-60082223D02*
X88380952Y-60082223D01*
X88428571Y-60320319D02*
X88333333Y-60272700D01*
X88333333Y-60272700D02*
X88238095Y-60177461D01*
X88238095Y-60177461D02*
X88190476Y-59986985D01*
X88190476Y-59986985D02*
X88190476Y-59653652D01*
X88190476Y-59653652D02*
X88238095Y-59463176D01*
X88238095Y-59463176D02*
X88333333Y-59367938D01*
X88333333Y-59367938D02*
X88428571Y-59320319D01*
X88428571Y-59320319D02*
X88619047Y-59320319D01*
X88619047Y-59320319D02*
X88714285Y-59367938D01*
X88714285Y-59367938D02*
X88809523Y-59463176D01*
X88809523Y-59463176D02*
X88857142Y-59653652D01*
X88857142Y-59653652D02*
X88857142Y-59986985D01*
X88857142Y-59986985D02*
X88809523Y-60177461D01*
X88809523Y-60177461D02*
X88714285Y-60272700D01*
X88714285Y-60272700D02*
X88619047Y-60320319D01*
X88619047Y-60320319D02*
X88428571Y-60320319D01*
X89238095Y-59415557D02*
X89285714Y-59367938D01*
X89285714Y-59367938D02*
X89380952Y-59320319D01*
X89380952Y-59320319D02*
X89619047Y-59320319D01*
X89619047Y-59320319D02*
X89714285Y-59367938D01*
X89714285Y-59367938D02*
X89761904Y-59415557D01*
X89761904Y-59415557D02*
X89809523Y-59510795D01*
X89809523Y-59510795D02*
X89809523Y-59606033D01*
X89809523Y-59606033D02*
X89761904Y-59748890D01*
X89761904Y-59748890D02*
X89190476Y-60320319D01*
X89190476Y-60320319D02*
X89809523Y-60320319D01*
X86814819Y-66968666D02*
X86338628Y-67301999D01*
X86814819Y-67540094D02*
X85814819Y-67540094D01*
X85814819Y-67540094D02*
X85814819Y-67159142D01*
X85814819Y-67159142D02*
X85862438Y-67063904D01*
X85862438Y-67063904D02*
X85910057Y-67016285D01*
X85910057Y-67016285D02*
X86005295Y-66968666D01*
X86005295Y-66968666D02*
X86148152Y-66968666D01*
X86148152Y-66968666D02*
X86243390Y-67016285D01*
X86243390Y-67016285D02*
X86291009Y-67063904D01*
X86291009Y-67063904D02*
X86338628Y-67159142D01*
X86338628Y-67159142D02*
X86338628Y-67540094D01*
X85814819Y-66111523D02*
X85814819Y-66301999D01*
X85814819Y-66301999D02*
X85862438Y-66397237D01*
X85862438Y-66397237D02*
X85910057Y-66444856D01*
X85910057Y-66444856D02*
X86052914Y-66540094D01*
X86052914Y-66540094D02*
X86243390Y-66587713D01*
X86243390Y-66587713D02*
X86624342Y-66587713D01*
X86624342Y-66587713D02*
X86719580Y-66540094D01*
X86719580Y-66540094D02*
X86767200Y-66492475D01*
X86767200Y-66492475D02*
X86814819Y-66397237D01*
X86814819Y-66397237D02*
X86814819Y-66206761D01*
X86814819Y-66206761D02*
X86767200Y-66111523D01*
X86767200Y-66111523D02*
X86719580Y-66063904D01*
X86719580Y-66063904D02*
X86624342Y-66016285D01*
X86624342Y-66016285D02*
X86386247Y-66016285D01*
X86386247Y-66016285D02*
X86291009Y-66063904D01*
X86291009Y-66063904D02*
X86243390Y-66111523D01*
X86243390Y-66111523D02*
X86195771Y-66206761D01*
X86195771Y-66206761D02*
X86195771Y-66397237D01*
X86195771Y-66397237D02*
X86243390Y-66492475D01*
X86243390Y-66492475D02*
X86291009Y-66540094D01*
X86291009Y-66540094D02*
X86386247Y-66587713D01*
D13*
%TO.C,J3*%
X92346000Y-57548000D02*
X93726000Y-57548000D01*
X92346000Y-58928000D02*
X92346000Y-57548000D01*
X92346000Y-60198000D02*
X92346000Y-73008000D01*
X92346000Y-60198000D02*
X95106000Y-60198000D01*
X92346000Y-73008000D02*
X95106000Y-73008000D01*
X95106000Y-60198000D02*
X95106000Y-73008000D01*
%TO.C,R1*%
X76947500Y-64499258D02*
X76947500Y-64024742D01*
X77992500Y-64499258D02*
X77992500Y-64024742D01*
%TO.C,R2*%
X78725500Y-64499258D02*
X78725500Y-64024742D01*
X79770500Y-64499258D02*
X79770500Y-64024742D01*
%TO.C,J2*%
X88536000Y-70248000D02*
X89916000Y-70248000D01*
X88536000Y-71628000D02*
X88536000Y-70248000D01*
X88536000Y-72898000D02*
X88536000Y-73008000D01*
X88536000Y-72898000D02*
X91296000Y-72898000D01*
X88536000Y-73008000D02*
X91296000Y-73008000D01*
X91296000Y-72898000D02*
X91296000Y-73008000D01*
%TO.C,C1*%
X75182000Y-64402580D02*
X75182000Y-64121420D01*
X76202000Y-64402580D02*
X76202000Y-64121420D01*
%TO.C,R8*%
X89393500Y-64499258D02*
X89393500Y-64024742D01*
X90438500Y-64499258D02*
X90438500Y-64024742D01*
%TO.C,R5*%
X84059500Y-64024742D02*
X84059500Y-64499258D01*
X85104500Y-64024742D02*
X85104500Y-64499258D01*
%TO.C,R4*%
X82281500Y-64499258D02*
X82281500Y-64024742D01*
X83326500Y-64499258D02*
X83326500Y-64024742D01*
%TO.C,R7*%
X87615500Y-64499258D02*
X87615500Y-64024742D01*
X88660500Y-64499258D02*
X88660500Y-64024742D01*
%TO.C,R3*%
X80503500Y-64024742D02*
X80503500Y-64499258D01*
X81548500Y-64024742D02*
X81548500Y-64499258D01*
%TO.C,RV1*%
X67510000Y-59328000D02*
X70678000Y-59328000D01*
X67510000Y-66148000D02*
X67510000Y-59328000D01*
X70678000Y-66148000D02*
X67510000Y-66148000D01*
X71442000Y-59328000D02*
X74730000Y-59328000D01*
X74730000Y-59328000D02*
X74730000Y-66148000D01*
X74730000Y-66148000D02*
X71442000Y-66148000D01*
%TO.C,Q1*%
X81244000Y-59865500D02*
X81244000Y-59215500D01*
X81244000Y-59865500D02*
X81244000Y-60515500D01*
X84364000Y-59865500D02*
X84364000Y-59215500D01*
X84364000Y-59865500D02*
X84364000Y-60515500D01*
X81294000Y-61028000D02*
X80964000Y-61268000D01*
X80964000Y-60788000D01*
X81294000Y-61028000D01*
G36*
X81294000Y-61028000D02*
G01*
X80964000Y-61268000D01*
X80964000Y-60788000D01*
X81294000Y-61028000D01*
G37*
%TO.C,Q2*%
X84800000Y-59865500D02*
X84800000Y-59215500D01*
X84800000Y-59865500D02*
X84800000Y-60515500D01*
X87920000Y-59865500D02*
X87920000Y-59215500D01*
X87920000Y-59865500D02*
X87920000Y-60515500D01*
X84850000Y-61028000D02*
X84520000Y-61268000D01*
X84520000Y-60788000D01*
X84850000Y-61028000D01*
G36*
X84850000Y-61028000D02*
G01*
X84520000Y-61268000D01*
X84520000Y-60788000D01*
X84850000Y-61028000D01*
G37*
D14*
%TO.C,REF\u002A\u002A*%
X85391814Y-68334931D02*
X85475635Y-68779555D01*
X85784920Y-68907053D01*
X86094206Y-69034551D01*
X86465246Y-68782246D01*
X86569157Y-68711996D01*
X86663087Y-68649272D01*
X86742652Y-68596938D01*
X86803470Y-68557857D01*
X86841157Y-68534893D01*
X86851421Y-68529942D01*
X86869910Y-68542676D01*
X86909420Y-68577882D01*
X86965522Y-68631062D01*
X87033787Y-68697718D01*
X87109786Y-68773354D01*
X87189092Y-68853472D01*
X87267275Y-68933574D01*
X87339907Y-69009164D01*
X87402559Y-69075745D01*
X87450803Y-69128818D01*
X87480210Y-69163887D01*
X87487241Y-69175623D01*
X87477123Y-69197260D01*
X87448759Y-69244662D01*
X87405129Y-69313193D01*
X87349218Y-69398215D01*
X87284006Y-69495093D01*
X87246219Y-69550350D01*
X87177343Y-69651248D01*
X87116140Y-69742299D01*
X87065578Y-69818970D01*
X87028628Y-69876728D01*
X87008258Y-69911043D01*
X87005197Y-69918254D01*
X87012136Y-69938748D01*
X87031051Y-69986513D01*
X87059087Y-70054832D01*
X87093391Y-70136989D01*
X87131109Y-70226270D01*
X87169387Y-70315958D01*
X87205370Y-70399338D01*
X87236206Y-70469694D01*
X87259039Y-70520310D01*
X87271017Y-70544471D01*
X87271724Y-70545422D01*
X87290531Y-70550036D01*
X87340618Y-70560328D01*
X87416793Y-70575287D01*
X87513865Y-70593901D01*
X87626643Y-70615159D01*
X87692442Y-70627418D01*
X87812950Y-70650362D01*
X87921797Y-70672195D01*
X88013476Y-70691722D01*
X88082481Y-70707748D01*
X88123304Y-70719079D01*
X88131511Y-70722674D01*
X88139548Y-70747006D01*
X88146033Y-70801959D01*
X88150970Y-70881108D01*
X88154364Y-70978026D01*
X88156218Y-71086287D01*
X88156538Y-71199465D01*
X88155327Y-71311135D01*
X88152590Y-71414868D01*
X88148331Y-71504241D01*
X88142555Y-71572826D01*
X88135267Y-71614197D01*
X88130895Y-71622810D01*
X88104764Y-71633133D01*
X88049393Y-71647892D01*
X87972107Y-71665352D01*
X87880230Y-71683780D01*
X87848158Y-71689741D01*
X87693524Y-71718066D01*
X87571375Y-71740876D01*
X87477673Y-71759080D01*
X87408384Y-71773583D01*
X87359471Y-71785292D01*
X87326897Y-71795115D01*
X87306628Y-71803956D01*
X87294626Y-71812724D01*
X87292947Y-71814457D01*
X87276184Y-71842371D01*
X87250614Y-71896695D01*
X87218788Y-71970777D01*
X87183260Y-72057965D01*
X87146583Y-72151608D01*
X87111311Y-72245052D01*
X87079996Y-72331647D01*
X87055193Y-72404740D01*
X87039454Y-72457678D01*
X87035332Y-72483811D01*
X87035676Y-72484726D01*
X87049641Y-72506086D01*
X87081322Y-72553084D01*
X87127391Y-72620827D01*
X87184518Y-72704423D01*
X87249373Y-72798982D01*
X87267843Y-72825854D01*
X87333699Y-72923275D01*
X87391650Y-73012163D01*
X87438538Y-73087412D01*
X87471207Y-73143920D01*
X87486500Y-73176581D01*
X87487241Y-73180593D01*
X87474392Y-73201684D01*
X87438888Y-73243464D01*
X87385293Y-73301445D01*
X87318171Y-73371135D01*
X87242087Y-73448045D01*
X87161604Y-73527683D01*
X87081287Y-73605561D01*
X87005699Y-73677186D01*
X86939405Y-73738070D01*
X86886969Y-73783721D01*
X86852955Y-73809650D01*
X86843545Y-73813883D01*
X86821643Y-73803912D01*
X86776800Y-73777020D01*
X86716321Y-73737736D01*
X86669789Y-73706117D01*
X86585475Y-73648098D01*
X86485626Y-73579784D01*
X86385473Y-73511579D01*
X86331627Y-73475075D01*
X86149371Y-73351800D01*
X85996381Y-73434520D01*
X85926682Y-73470759D01*
X85867414Y-73498926D01*
X85827311Y-73514991D01*
X85817103Y-73517226D01*
X85804829Y-73500722D01*
X85780613Y-73454082D01*
X85746263Y-73381609D01*
X85703588Y-73287606D01*
X85654394Y-73176374D01*
X85600490Y-73052215D01*
X85543684Y-72919432D01*
X85485782Y-72782327D01*
X85428593Y-72645202D01*
X85373924Y-72512358D01*
X85323584Y-72388098D01*
X85279380Y-72276725D01*
X85243119Y-72182539D01*
X85216609Y-72109844D01*
X85201658Y-72062941D01*
X85199254Y-72046833D01*
X85218311Y-72026286D01*
X85260036Y-71992933D01*
X85315706Y-71953702D01*
X85320378Y-71950599D01*
X85464264Y-71835423D01*
X85580283Y-71701053D01*
X85667430Y-71551784D01*
X85724699Y-71391913D01*
X85751086Y-71225737D01*
X85745585Y-71057552D01*
X85707190Y-70891655D01*
X85634895Y-70732342D01*
X85613626Y-70697487D01*
X85502996Y-70556737D01*
X85372302Y-70443714D01*
X85226064Y-70359003D01*
X85068808Y-70303194D01*
X84905057Y-70276874D01*
X84739333Y-70280630D01*
X84576162Y-70315050D01*
X84420065Y-70380723D01*
X84275567Y-70478235D01*
X84230869Y-70517813D01*
X84117112Y-70641703D01*
X84034218Y-70772124D01*
X83977356Y-70918315D01*
X83945687Y-71063088D01*
X83937869Y-71225860D01*
X83963938Y-71389440D01*
X84021245Y-71548298D01*
X84107144Y-71696906D01*
X84218986Y-71829735D01*
X84354123Y-71941256D01*
X84371883Y-71953011D01*
X84428150Y-71991508D01*
X84470923Y-72024863D01*
X84491372Y-72046160D01*
X84491669Y-72046833D01*
X84487279Y-72069871D01*
X84469876Y-72122157D01*
X84441268Y-72199390D01*
X84403265Y-72297268D01*
X84357674Y-72411491D01*
X84306303Y-72537758D01*
X84250962Y-72671767D01*
X84193458Y-72809218D01*
X84135601Y-72945808D01*
X84079198Y-73077237D01*
X84026058Y-73199205D01*
X83977990Y-73307409D01*
X83936801Y-73397549D01*
X83904301Y-73465323D01*
X83882297Y-73506430D01*
X83873436Y-73517226D01*
X83846360Y-73508819D01*
X83795697Y-73486272D01*
X83730183Y-73453613D01*
X83694159Y-73434520D01*
X83541168Y-73351800D01*
X83358912Y-73475075D01*
X83265875Y-73538228D01*
X83164015Y-73607727D01*
X83068562Y-73673165D01*
X83020750Y-73706117D01*
X82953505Y-73751273D01*
X82896564Y-73787057D01*
X82857354Y-73808938D01*
X82844619Y-73813563D01*
X82826083Y-73801085D01*
X82785059Y-73766252D01*
X82725525Y-73712678D01*
X82651458Y-73643983D01*
X82566835Y-73563781D01*
X82513315Y-73512286D01*
X82419681Y-73420286D01*
X82338759Y-73337999D01*
X82273823Y-73268945D01*
X82228142Y-73216644D01*
X82204989Y-73184616D01*
X82202768Y-73178116D01*
X82213076Y-73153394D01*
X82241561Y-73103405D01*
X82285063Y-73033212D01*
X82340423Y-72947875D01*
X82404480Y-72852456D01*
X82422697Y-72825854D01*
X82489073Y-72729167D01*
X82548622Y-72642117D01*
X82598016Y-72569595D01*
X82633925Y-72516493D01*
X82653019Y-72487703D01*
X82654864Y-72484726D01*
X82652105Y-72461782D01*
X82637462Y-72411336D01*
X82613487Y-72340041D01*
X82582734Y-72254547D01*
X82547756Y-72161507D01*
X82511107Y-72067574D01*
X82475339Y-71979399D01*
X82443006Y-71903634D01*
X82416662Y-71846931D01*
X82398858Y-71815943D01*
X82397593Y-71814457D01*
X82386706Y-71805601D01*
X82368318Y-71796843D01*
X82338394Y-71787277D01*
X82292897Y-71775996D01*
X82227791Y-71762093D01*
X82139039Y-71744663D01*
X82022607Y-71722798D01*
X81874458Y-71695591D01*
X81842382Y-71689741D01*
X81747314Y-71671374D01*
X81664435Y-71653405D01*
X81601070Y-71637569D01*
X81564542Y-71625600D01*
X81559644Y-71622810D01*
X81551573Y-71598072D01*
X81545013Y-71542790D01*
X81539967Y-71463389D01*
X81536441Y-71366296D01*
X81534439Y-71257938D01*
X81533964Y-71144740D01*
X81535023Y-71033128D01*
X81537618Y-70929529D01*
X81541754Y-70840368D01*
X81547437Y-70772072D01*
X81554669Y-70731066D01*
X81559029Y-70722674D01*
X81583302Y-70714208D01*
X81638574Y-70700435D01*
X81719338Y-70682550D01*
X81820088Y-70661748D01*
X81935317Y-70639223D01*
X81998098Y-70627418D01*
X82117213Y-70605151D01*
X82223435Y-70584979D01*
X82311573Y-70567915D01*
X82376434Y-70554969D01*
X82412826Y-70547155D01*
X82418816Y-70545422D01*
X82428939Y-70525890D01*
X82450338Y-70478843D01*
X82480161Y-70411003D01*
X82515555Y-70329091D01*
X82553668Y-70239828D01*
X82591647Y-70149935D01*
X82626640Y-70066135D01*
X82655794Y-69995147D01*
X82676257Y-69943694D01*
X82685177Y-69918497D01*
X82685343Y-69917396D01*
X82675231Y-69897519D01*
X82646883Y-69851777D01*
X82603277Y-69784717D01*
X82547394Y-69700884D01*
X82482213Y-69604826D01*
X82444321Y-69549650D01*
X82375275Y-69448481D01*
X82313950Y-69356630D01*
X82263337Y-69278744D01*
X82226429Y-69219469D01*
X82206218Y-69183451D01*
X82203299Y-69175377D01*
X82215847Y-69156584D01*
X82250537Y-69116457D01*
X82302937Y-69059493D01*
X82368616Y-68990185D01*
X82443144Y-68913031D01*
X82522087Y-68832525D01*
X82601017Y-68753163D01*
X82675500Y-68679440D01*
X82741106Y-68615852D01*
X82793404Y-68566894D01*
X82827961Y-68537061D01*
X82839522Y-68529942D01*
X82858346Y-68539953D01*
X82903369Y-68568078D01*
X82970213Y-68611454D01*
X83054501Y-68667218D01*
X83151856Y-68732506D01*
X83225293Y-68782246D01*
X83596333Y-69034551D01*
X84214905Y-68779555D01*
X84298725Y-68334931D01*
X84382546Y-67890307D01*
X85307994Y-67890307D01*
X85391814Y-68334931D01*
G36*
X85391814Y-68334931D02*
G01*
X85475635Y-68779555D01*
X85784920Y-68907053D01*
X86094206Y-69034551D01*
X86465246Y-68782246D01*
X86569157Y-68711996D01*
X86663087Y-68649272D01*
X86742652Y-68596938D01*
X86803470Y-68557857D01*
X86841157Y-68534893D01*
X86851421Y-68529942D01*
X86869910Y-68542676D01*
X86909420Y-68577882D01*
X86965522Y-68631062D01*
X87033787Y-68697718D01*
X87109786Y-68773354D01*
X87189092Y-68853472D01*
X87267275Y-68933574D01*
X87339907Y-69009164D01*
X87402559Y-69075745D01*
X87450803Y-69128818D01*
X87480210Y-69163887D01*
X87487241Y-69175623D01*
X87477123Y-69197260D01*
X87448759Y-69244662D01*
X87405129Y-69313193D01*
X87349218Y-69398215D01*
X87284006Y-69495093D01*
X87246219Y-69550350D01*
X87177343Y-69651248D01*
X87116140Y-69742299D01*
X87065578Y-69818970D01*
X87028628Y-69876728D01*
X87008258Y-69911043D01*
X87005197Y-69918254D01*
X87012136Y-69938748D01*
X87031051Y-69986513D01*
X87059087Y-70054832D01*
X87093391Y-70136989D01*
X87131109Y-70226270D01*
X87169387Y-70315958D01*
X87205370Y-70399338D01*
X87236206Y-70469694D01*
X87259039Y-70520310D01*
X87271017Y-70544471D01*
X87271724Y-70545422D01*
X87290531Y-70550036D01*
X87340618Y-70560328D01*
X87416793Y-70575287D01*
X87513865Y-70593901D01*
X87626643Y-70615159D01*
X87692442Y-70627418D01*
X87812950Y-70650362D01*
X87921797Y-70672195D01*
X88013476Y-70691722D01*
X88082481Y-70707748D01*
X88123304Y-70719079D01*
X88131511Y-70722674D01*
X88139548Y-70747006D01*
X88146033Y-70801959D01*
X88150970Y-70881108D01*
X88154364Y-70978026D01*
X88156218Y-71086287D01*
X88156538Y-71199465D01*
X88155327Y-71311135D01*
X88152590Y-71414868D01*
X88148331Y-71504241D01*
X88142555Y-71572826D01*
X88135267Y-71614197D01*
X88130895Y-71622810D01*
X88104764Y-71633133D01*
X88049393Y-71647892D01*
X87972107Y-71665352D01*
X87880230Y-71683780D01*
X87848158Y-71689741D01*
X87693524Y-71718066D01*
X87571375Y-71740876D01*
X87477673Y-71759080D01*
X87408384Y-71773583D01*
X87359471Y-71785292D01*
X87326897Y-71795115D01*
X87306628Y-71803956D01*
X87294626Y-71812724D01*
X87292947Y-71814457D01*
X87276184Y-71842371D01*
X87250614Y-71896695D01*
X87218788Y-71970777D01*
X87183260Y-72057965D01*
X87146583Y-72151608D01*
X87111311Y-72245052D01*
X87079996Y-72331647D01*
X87055193Y-72404740D01*
X87039454Y-72457678D01*
X87035332Y-72483811D01*
X87035676Y-72484726D01*
X87049641Y-72506086D01*
X87081322Y-72553084D01*
X87127391Y-72620827D01*
X87184518Y-72704423D01*
X87249373Y-72798982D01*
X87267843Y-72825854D01*
X87333699Y-72923275D01*
X87391650Y-73012163D01*
X87438538Y-73087412D01*
X87471207Y-73143920D01*
X87486500Y-73176581D01*
X87487241Y-73180593D01*
X87474392Y-73201684D01*
X87438888Y-73243464D01*
X87385293Y-73301445D01*
X87318171Y-73371135D01*
X87242087Y-73448045D01*
X87161604Y-73527683D01*
X87081287Y-73605561D01*
X87005699Y-73677186D01*
X86939405Y-73738070D01*
X86886969Y-73783721D01*
X86852955Y-73809650D01*
X86843545Y-73813883D01*
X86821643Y-73803912D01*
X86776800Y-73777020D01*
X86716321Y-73737736D01*
X86669789Y-73706117D01*
X86585475Y-73648098D01*
X86485626Y-73579784D01*
X86385473Y-73511579D01*
X86331627Y-73475075D01*
X86149371Y-73351800D01*
X85996381Y-73434520D01*
X85926682Y-73470759D01*
X85867414Y-73498926D01*
X85827311Y-73514991D01*
X85817103Y-73517226D01*
X85804829Y-73500722D01*
X85780613Y-73454082D01*
X85746263Y-73381609D01*
X85703588Y-73287606D01*
X85654394Y-73176374D01*
X85600490Y-73052215D01*
X85543684Y-72919432D01*
X85485782Y-72782327D01*
X85428593Y-72645202D01*
X85373924Y-72512358D01*
X85323584Y-72388098D01*
X85279380Y-72276725D01*
X85243119Y-72182539D01*
X85216609Y-72109844D01*
X85201658Y-72062941D01*
X85199254Y-72046833D01*
X85218311Y-72026286D01*
X85260036Y-71992933D01*
X85315706Y-71953702D01*
X85320378Y-71950599D01*
X85464264Y-71835423D01*
X85580283Y-71701053D01*
X85667430Y-71551784D01*
X85724699Y-71391913D01*
X85751086Y-71225737D01*
X85745585Y-71057552D01*
X85707190Y-70891655D01*
X85634895Y-70732342D01*
X85613626Y-70697487D01*
X85502996Y-70556737D01*
X85372302Y-70443714D01*
X85226064Y-70359003D01*
X85068808Y-70303194D01*
X84905057Y-70276874D01*
X84739333Y-70280630D01*
X84576162Y-70315050D01*
X84420065Y-70380723D01*
X84275567Y-70478235D01*
X84230869Y-70517813D01*
X84117112Y-70641703D01*
X84034218Y-70772124D01*
X83977356Y-70918315D01*
X83945687Y-71063088D01*
X83937869Y-71225860D01*
X83963938Y-71389440D01*
X84021245Y-71548298D01*
X84107144Y-71696906D01*
X84218986Y-71829735D01*
X84354123Y-71941256D01*
X84371883Y-71953011D01*
X84428150Y-71991508D01*
X84470923Y-72024863D01*
X84491372Y-72046160D01*
X84491669Y-72046833D01*
X84487279Y-72069871D01*
X84469876Y-72122157D01*
X84441268Y-72199390D01*
X84403265Y-72297268D01*
X84357674Y-72411491D01*
X84306303Y-72537758D01*
X84250962Y-72671767D01*
X84193458Y-72809218D01*
X84135601Y-72945808D01*
X84079198Y-73077237D01*
X84026058Y-73199205D01*
X83977990Y-73307409D01*
X83936801Y-73397549D01*
X83904301Y-73465323D01*
X83882297Y-73506430D01*
X83873436Y-73517226D01*
X83846360Y-73508819D01*
X83795697Y-73486272D01*
X83730183Y-73453613D01*
X83694159Y-73434520D01*
X83541168Y-73351800D01*
X83358912Y-73475075D01*
X83265875Y-73538228D01*
X83164015Y-73607727D01*
X83068562Y-73673165D01*
X83020750Y-73706117D01*
X82953505Y-73751273D01*
X82896564Y-73787057D01*
X82857354Y-73808938D01*
X82844619Y-73813563D01*
X82826083Y-73801085D01*
X82785059Y-73766252D01*
X82725525Y-73712678D01*
X82651458Y-73643983D01*
X82566835Y-73563781D01*
X82513315Y-73512286D01*
X82419681Y-73420286D01*
X82338759Y-73337999D01*
X82273823Y-73268945D01*
X82228142Y-73216644D01*
X82204989Y-73184616D01*
X82202768Y-73178116D01*
X82213076Y-73153394D01*
X82241561Y-73103405D01*
X82285063Y-73033212D01*
X82340423Y-72947875D01*
X82404480Y-72852456D01*
X82422697Y-72825854D01*
X82489073Y-72729167D01*
X82548622Y-72642117D01*
X82598016Y-72569595D01*
X82633925Y-72516493D01*
X82653019Y-72487703D01*
X82654864Y-72484726D01*
X82652105Y-72461782D01*
X82637462Y-72411336D01*
X82613487Y-72340041D01*
X82582734Y-72254547D01*
X82547756Y-72161507D01*
X82511107Y-72067574D01*
X82475339Y-71979399D01*
X82443006Y-71903634D01*
X82416662Y-71846931D01*
X82398858Y-71815943D01*
X82397593Y-71814457D01*
X82386706Y-71805601D01*
X82368318Y-71796843D01*
X82338394Y-71787277D01*
X82292897Y-71775996D01*
X82227791Y-71762093D01*
X82139039Y-71744663D01*
X82022607Y-71722798D01*
X81874458Y-71695591D01*
X81842382Y-71689741D01*
X81747314Y-71671374D01*
X81664435Y-71653405D01*
X81601070Y-71637569D01*
X81564542Y-71625600D01*
X81559644Y-71622810D01*
X81551573Y-71598072D01*
X81545013Y-71542790D01*
X81539967Y-71463389D01*
X81536441Y-71366296D01*
X81534439Y-71257938D01*
X81533964Y-71144740D01*
X81535023Y-71033128D01*
X81537618Y-70929529D01*
X81541754Y-70840368D01*
X81547437Y-70772072D01*
X81554669Y-70731066D01*
X81559029Y-70722674D01*
X81583302Y-70714208D01*
X81638574Y-70700435D01*
X81719338Y-70682550D01*
X81820088Y-70661748D01*
X81935317Y-70639223D01*
X81998098Y-70627418D01*
X82117213Y-70605151D01*
X82223435Y-70584979D01*
X82311573Y-70567915D01*
X82376434Y-70554969D01*
X82412826Y-70547155D01*
X82418816Y-70545422D01*
X82428939Y-70525890D01*
X82450338Y-70478843D01*
X82480161Y-70411003D01*
X82515555Y-70329091D01*
X82553668Y-70239828D01*
X82591647Y-70149935D01*
X82626640Y-70066135D01*
X82655794Y-69995147D01*
X82676257Y-69943694D01*
X82685177Y-69918497D01*
X82685343Y-69917396D01*
X82675231Y-69897519D01*
X82646883Y-69851777D01*
X82603277Y-69784717D01*
X82547394Y-69700884D01*
X82482213Y-69604826D01*
X82444321Y-69549650D01*
X82375275Y-69448481D01*
X82313950Y-69356630D01*
X82263337Y-69278744D01*
X82226429Y-69219469D01*
X82206218Y-69183451D01*
X82203299Y-69175377D01*
X82215847Y-69156584D01*
X82250537Y-69116457D01*
X82302937Y-69059493D01*
X82368616Y-68990185D01*
X82443144Y-68913031D01*
X82522087Y-68832525D01*
X82601017Y-68753163D01*
X82675500Y-68679440D01*
X82741106Y-68615852D01*
X82793404Y-68566894D01*
X82827961Y-68537061D01*
X82839522Y-68529942D01*
X82858346Y-68539953D01*
X82903369Y-68568078D01*
X82970213Y-68611454D01*
X83054501Y-68667218D01*
X83151856Y-68732506D01*
X83225293Y-68782246D01*
X83596333Y-69034551D01*
X84214905Y-68779555D01*
X84298725Y-68334931D01*
X84382546Y-67890307D01*
X85307994Y-67890307D01*
X85391814Y-68334931D01*
G37*
D13*
%TO.C,R6*%
X85837500Y-64024742D02*
X85837500Y-64499258D01*
X86882500Y-64024742D02*
X86882500Y-64499258D01*
%TD*%
%LPC*%
D15*
%TO.C,J3*%
X93726000Y-58928000D03*
D16*
X93726000Y-61468000D03*
X93726000Y-64008000D03*
X93726000Y-66548000D03*
X93726000Y-69088000D03*
X93726000Y-71628000D03*
%TD*%
D17*
%TO.C,R1*%
X77470000Y-65087000D03*
X77470000Y-63437000D03*
%TD*%
%TO.C,R2*%
X79248000Y-65087000D03*
X79248000Y-63437000D03*
%TD*%
D15*
%TO.C,J2*%
X89916000Y-71628000D03*
%TD*%
D18*
%TO.C,C1*%
X75692000Y-65037000D03*
X75692000Y-63487000D03*
%TD*%
D17*
%TO.C,R8*%
X89916000Y-65087000D03*
X89916000Y-63437000D03*
%TD*%
D19*
%TO.C,R5*%
X84582000Y-63437000D03*
X84582000Y-65087000D03*
%TD*%
D17*
%TO.C,R4*%
X82804000Y-65087000D03*
X82804000Y-63437000D03*
%TD*%
%TO.C,R7*%
X88138000Y-65087000D03*
X88138000Y-63437000D03*
%TD*%
D19*
%TO.C,R3*%
X81026000Y-63437000D03*
X81026000Y-65087000D03*
%TD*%
D20*
%TO.C,RV1*%
X71060000Y-60198000D03*
X68520000Y-62738000D03*
X71060000Y-65278000D03*
%TD*%
D21*
%TO.C,Q1*%
X81854000Y-60803000D03*
X83754000Y-60803000D03*
X82804000Y-58928000D03*
%TD*%
%TO.C,Q2*%
X85410000Y-60803000D03*
X87310000Y-60803000D03*
X86360000Y-58928000D03*
%TD*%
D19*
%TO.C,R6*%
X86360000Y-63437000D03*
X86360000Y-65087000D03*
%TD*%
D15*
%TO.C,J1*%
X69850000Y-71628000D03*
D16*
X72390000Y-71628000D03*
X74930000Y-71628000D03*
X77470000Y-71628000D03*
X80010000Y-71628000D03*
%TD*%
%LPD*%
M02*
