M48
; DRILL file {KiCad 9.0.3} date 2025-09-20T16:12:32+0800
; FORMAT={-:-/ absolute / metric / decimal}
; #@! TF.CreationDate,2025-09-20T16:12:32+08:00
; #@! TF.GenerationSoftware,Kicad,Pcbnew,9.0.3
; #@! TF.FileFunction,Plated,1,2,PTH
FMAT,2
METRIC
; #@! TA.AperFunction,Plated,PTH,ViaDrill
T1C0.300
; #@! TA.AperFunction,Plated,PTH,ComponentDrill
T2C0.800
; #@! TA.AperFunction,Plated,PTH,ComponentDrill
T3C1.000
%
G90
G05
T1
X68.072Y-71.628
X69.85Y-69.85
X69.85Y-73.406
X81.026Y-66.548
X84.582Y-66.548
X86.36Y-66.548
X92.71Y-60.452
X92.71Y-62.484
X92.71Y-65.278
X92.71Y-67.818
X92.71Y-70.104
X94.742Y-60.452
X94.742Y-62.484
X94.742Y-65.278
X94.742Y-67.818
X94.742Y-70.104
T2
X68.52Y-62.738
X71.06Y-60.198
X71.06Y-65.278
T3
X69.85Y-71.628
X72.39Y-71.628
X74.93Y-71.628
X77.47Y-71.628
X80.01Y-71.628
X89.916Y-71.628
X93.726Y-58.928
X93.726Y-61.468
X93.726Y-64.008
X93.726Y-66.548
X93.726Y-69.088
X93.726Y-71.628
M30
