%TF.GenerationSoftware,KiCad,Pcbnew,9.0.3*%
%TF.CreationDate,2025-09-20T16:11:44+08:00*%
%TF.ProjectId,Atari2600_2TransistorCompMod,41746172-6932-4363-9030-5f325472616e,rev?*%
%TF.SameCoordinates,Original*%
%TF.FileFunction,Copper,L2,Bot*%
%TF.FilePolarity,Positive*%
%FSLAX46Y46*%
G04 Gerber Fmt 4.6, Leading zero omitted, Abs format (unit mm)*
G04 Created by KiCad (PCBNEW 9.0.3) date 2025-09-20 16:11:44*
%MOMM*%
%LPD*%
G01*
G04 APERTURE LIST*
%TA.AperFunction,ComponentPad*%
%ADD10R,1.700000X1.700000*%
%TD*%
%TA.AperFunction,ComponentPad*%
%ADD11C,1.700000*%
%TD*%
%TA.AperFunction,ComponentPad*%
%ADD12C,1.440000*%
%TD*%
%TA.AperFunction,ViaPad*%
%ADD13C,0.600000*%
%TD*%
G04 APERTURE END LIST*
D10*
%TO.P,J3,1,Pin_1*%
%TO.N,/VideoOut*%
X93726000Y-58928000D03*
D11*
%TO.P,J3,2,Pin_2*%
%TO.N,GND*%
X93726000Y-61468000D03*
%TO.P,J3,3,Pin_3*%
%TO.N,/AudioOut*%
X93726000Y-64008000D03*
%TO.P,J3,4,Pin_4*%
%TO.N,GND*%
X93726000Y-66548000D03*
%TO.P,J3,5,Pin_5*%
X93726000Y-69088000D03*
%TO.P,J3,6,Pin_6*%
%TO.N,/AudioOut*%
X93726000Y-71628000D03*
%TD*%
D10*
%TO.P,J2,1,Pin_1*%
%TO.N,Net-(J2-Pin_1)*%
X89916000Y-71628000D03*
%TD*%
D12*
%TO.P,RV1,1,1*%
%TO.N,Net-(Q1-B)*%
X71060000Y-60198000D03*
%TO.P,RV1,2,2*%
%TO.N,Net-(C1-Pad2)*%
X68520000Y-62738000D03*
%TO.P,RV1,3,3*%
X71060000Y-65278000D03*
%TD*%
D10*
%TO.P,J1,1,Pin_1*%
%TO.N,GND*%
X69850000Y-71628000D03*
D11*
%TO.P,J1,2,Pin_2*%
%TO.N,unconnected-(J1-Pin_2-Pad2)*%
X72390000Y-71628000D03*
%TO.P,J1,3,Pin_3*%
%TO.N,+5V*%
X74930000Y-71628000D03*
%TO.P,J1,4,Pin_4*%
%TO.N,/VideoIn*%
X77470000Y-71628000D03*
%TO.P,J1,5,Pin_5*%
%TO.N,unconnected-(J1-Pin_5-Pad5)*%
X80010000Y-71628000D03*
%TD*%
D13*
%TO.N,GND*%
X92710000Y-70104000D03*
X84582000Y-66548000D03*
X69850000Y-73406000D03*
X68072000Y-71628000D03*
X92710000Y-62484000D03*
X92710000Y-60452000D03*
X69850000Y-69850000D03*
X92710000Y-67818000D03*
X94742000Y-67818000D03*
X94742000Y-65278000D03*
X94742000Y-70104000D03*
X92710000Y-65278000D03*
X94742000Y-60452000D03*
X86360000Y-66548000D03*
X94742000Y-62484000D03*
X81026000Y-66548000D03*
%TD*%
%TA.AperFunction,Conductor*%
%TO.N,GND*%
G36*
X94004418Y-56500816D02*
G01*
X94204561Y-56515130D01*
X94222063Y-56517647D01*
X94413797Y-56559355D01*
X94430755Y-56564334D01*
X94614609Y-56632909D01*
X94630701Y-56640259D01*
X94802904Y-56734288D01*
X94817784Y-56743849D01*
X94974867Y-56861441D01*
X94988237Y-56873027D01*
X95126972Y-57011762D01*
X95138558Y-57025132D01*
X95256146Y-57182210D01*
X95265711Y-57197095D01*
X95359740Y-57369298D01*
X95367090Y-57385390D01*
X95435662Y-57569236D01*
X95440646Y-57586212D01*
X95482351Y-57777931D01*
X95484869Y-57795442D01*
X95499184Y-57995580D01*
X95499500Y-58004427D01*
X95499500Y-72995572D01*
X95499184Y-73004419D01*
X95484869Y-73204557D01*
X95482351Y-73222068D01*
X95440646Y-73413787D01*
X95435662Y-73430763D01*
X95367090Y-73614609D01*
X95359740Y-73630701D01*
X95265711Y-73802904D01*
X95256146Y-73817789D01*
X95138558Y-73974867D01*
X95126972Y-73988237D01*
X94988237Y-74126972D01*
X94974867Y-74138558D01*
X94817789Y-74256146D01*
X94802904Y-74265711D01*
X94630701Y-74359740D01*
X94614609Y-74367090D01*
X94430763Y-74435662D01*
X94413787Y-74440646D01*
X94222068Y-74482351D01*
X94204557Y-74484869D01*
X94023779Y-74497799D01*
X94004417Y-74499184D01*
X93995572Y-74499500D01*
X69004428Y-74499500D01*
X68995582Y-74499184D01*
X68973622Y-74497613D01*
X68795442Y-74484869D01*
X68777931Y-74482351D01*
X68586212Y-74440646D01*
X68569236Y-74435662D01*
X68385390Y-74367090D01*
X68369298Y-74359740D01*
X68197095Y-74265711D01*
X68182210Y-74256146D01*
X68025132Y-74138558D01*
X68011762Y-74126972D01*
X67873027Y-73988237D01*
X67861441Y-73974867D01*
X67743849Y-73817784D01*
X67734288Y-73802904D01*
X67640259Y-73630701D01*
X67632909Y-73614609D01*
X67572091Y-73451551D01*
X67564334Y-73430755D01*
X67559355Y-73413797D01*
X67517647Y-73222063D01*
X67515130Y-73204556D01*
X67500816Y-73004418D01*
X67500500Y-72995572D01*
X67500500Y-70730155D01*
X68500000Y-70730155D01*
X68500000Y-71378000D01*
X69416988Y-71378000D01*
X69384075Y-71435007D01*
X69350000Y-71562174D01*
X69350000Y-71693826D01*
X69384075Y-71820993D01*
X69416988Y-71878000D01*
X68500000Y-71878000D01*
X68500000Y-72525844D01*
X68506401Y-72585372D01*
X68506403Y-72585379D01*
X68556645Y-72720086D01*
X68556649Y-72720093D01*
X68642809Y-72835187D01*
X68642812Y-72835190D01*
X68757906Y-72921350D01*
X68757913Y-72921354D01*
X68892620Y-72971596D01*
X68892627Y-72971598D01*
X68952155Y-72977999D01*
X68952172Y-72978000D01*
X69600000Y-72978000D01*
X69600000Y-72061012D01*
X69657007Y-72093925D01*
X69784174Y-72128000D01*
X69915826Y-72128000D01*
X70042993Y-72093925D01*
X70100000Y-72061012D01*
X70100000Y-72978000D01*
X70747828Y-72978000D01*
X70747844Y-72977999D01*
X70807372Y-72971598D01*
X70807379Y-72971596D01*
X70942086Y-72921354D01*
X70942093Y-72921350D01*
X71057187Y-72835190D01*
X71057190Y-72835187D01*
X71143350Y-72720093D01*
X71143354Y-72720086D01*
X71193596Y-72585379D01*
X71193598Y-72585372D01*
X71199999Y-72525844D01*
X71200000Y-72525827D01*
X71200000Y-72329087D01*
X71219685Y-72262048D01*
X71272489Y-72216293D01*
X71341647Y-72206349D01*
X71405203Y-72235374D01*
X71424318Y-72256202D01*
X71512441Y-72377495D01*
X71640500Y-72505554D01*
X71640505Y-72505558D01*
X71750361Y-72585372D01*
X71787006Y-72611996D01*
X71863094Y-72650765D01*
X71948360Y-72694211D01*
X71948363Y-72694212D01*
X72027997Y-72720086D01*
X72120591Y-72750171D01*
X72203429Y-72763291D01*
X72299449Y-72778500D01*
X72299454Y-72778500D01*
X72480551Y-72778500D01*
X72567259Y-72764765D01*
X72659409Y-72750171D01*
X72831639Y-72694211D01*
X72992994Y-72611996D01*
X73139501Y-72505553D01*
X73267553Y-72377501D01*
X73373996Y-72230994D01*
X73456211Y-72069639D01*
X73512171Y-71897409D01*
X73526422Y-71807425D01*
X73537527Y-71737321D01*
X73567456Y-71674186D01*
X73626768Y-71637255D01*
X73696630Y-71638253D01*
X73754863Y-71676863D01*
X73782473Y-71737321D01*
X73807829Y-71897410D01*
X73863787Y-72069636D01*
X73863788Y-72069639D01*
X73919664Y-72179300D01*
X73938513Y-72216293D01*
X73946006Y-72230997D01*
X74052441Y-72377494D01*
X74052445Y-72377499D01*
X74180500Y-72505554D01*
X74180505Y-72505558D01*
X74290361Y-72585372D01*
X74327006Y-72611996D01*
X74403094Y-72650765D01*
X74488360Y-72694211D01*
X74488363Y-72694212D01*
X74567997Y-72720086D01*
X74660591Y-72750171D01*
X74743429Y-72763291D01*
X74839449Y-72778500D01*
X74839454Y-72778500D01*
X75020551Y-72778500D01*
X75107259Y-72764765D01*
X75199409Y-72750171D01*
X75371639Y-72694211D01*
X75532994Y-72611996D01*
X75679501Y-72505553D01*
X75807553Y-72377501D01*
X75913996Y-72230994D01*
X75996211Y-72069639D01*
X76052171Y-71897409D01*
X76066422Y-71807425D01*
X76077527Y-71737321D01*
X76107456Y-71674186D01*
X76166768Y-71637255D01*
X76236630Y-71638253D01*
X76294863Y-71676863D01*
X76322473Y-71737321D01*
X76347829Y-71897410D01*
X76403787Y-72069636D01*
X76403788Y-72069639D01*
X76459664Y-72179300D01*
X76478513Y-72216293D01*
X76486006Y-72230997D01*
X76592441Y-72377494D01*
X76592445Y-72377499D01*
X76720500Y-72505554D01*
X76720505Y-72505558D01*
X76830361Y-72585372D01*
X76867006Y-72611996D01*
X76943094Y-72650765D01*
X77028360Y-72694211D01*
X77028363Y-72694212D01*
X77107997Y-72720086D01*
X77200591Y-72750171D01*
X77283429Y-72763291D01*
X77379449Y-72778500D01*
X77379454Y-72778500D01*
X77560551Y-72778500D01*
X77647259Y-72764765D01*
X77739409Y-72750171D01*
X77911639Y-72694211D01*
X78072994Y-72611996D01*
X78219501Y-72505553D01*
X78347553Y-72377501D01*
X78453996Y-72230994D01*
X78536211Y-72069639D01*
X78592171Y-71897409D01*
X78606422Y-71807425D01*
X78617527Y-71737321D01*
X78647456Y-71674186D01*
X78706768Y-71637255D01*
X78776630Y-71638253D01*
X78834863Y-71676863D01*
X78862473Y-71737321D01*
X78887829Y-71897410D01*
X78943787Y-72069636D01*
X78943788Y-72069639D01*
X78999664Y-72179300D01*
X79018513Y-72216293D01*
X79026006Y-72230997D01*
X79132441Y-72377494D01*
X79132445Y-72377499D01*
X79260500Y-72505554D01*
X79260505Y-72505558D01*
X79370361Y-72585372D01*
X79407006Y-72611996D01*
X79483094Y-72650765D01*
X79568360Y-72694211D01*
X79568363Y-72694212D01*
X79647997Y-72720086D01*
X79740591Y-72750171D01*
X79823429Y-72763291D01*
X79919449Y-72778500D01*
X79919454Y-72778500D01*
X80100551Y-72778500D01*
X80187259Y-72764765D01*
X80279409Y-72750171D01*
X80451639Y-72694211D01*
X80612994Y-72611996D01*
X80759501Y-72505553D01*
X80887553Y-72377501D01*
X80993996Y-72230994D01*
X81076211Y-72069639D01*
X81132171Y-71897409D01*
X81146765Y-71805259D01*
X81160500Y-71718551D01*
X81160500Y-71537448D01*
X81135245Y-71378000D01*
X81132171Y-71358591D01*
X81076211Y-71186361D01*
X81076211Y-71186360D01*
X81005937Y-71048442D01*
X80993996Y-71025006D01*
X80975681Y-70999797D01*
X80887558Y-70878505D01*
X80887554Y-70878500D01*
X80759499Y-70750445D01*
X80759494Y-70750441D01*
X80735669Y-70733131D01*
X88765500Y-70733131D01*
X88765500Y-72522856D01*
X88765502Y-72522882D01*
X88768413Y-72547987D01*
X88768415Y-72547991D01*
X88813793Y-72650764D01*
X88813794Y-72650765D01*
X88893235Y-72730206D01*
X88996009Y-72775585D01*
X89021135Y-72778500D01*
X90810864Y-72778499D01*
X90810879Y-72778497D01*
X90810882Y-72778497D01*
X90835987Y-72775586D01*
X90835988Y-72775585D01*
X90835991Y-72775585D01*
X90938765Y-72730206D01*
X91018206Y-72650765D01*
X91063585Y-72547991D01*
X91066500Y-72522865D01*
X91066499Y-70733136D01*
X91066497Y-70733117D01*
X91063586Y-70708012D01*
X91063585Y-70708010D01*
X91063585Y-70708009D01*
X91018206Y-70605235D01*
X90938765Y-70525794D01*
X90928211Y-70521134D01*
X90835992Y-70480415D01*
X90810865Y-70477500D01*
X89021143Y-70477500D01*
X89021117Y-70477502D01*
X88996012Y-70480413D01*
X88996008Y-70480415D01*
X88893235Y-70525793D01*
X88813794Y-70605234D01*
X88768415Y-70708006D01*
X88768415Y-70708008D01*
X88765500Y-70733131D01*
X80735669Y-70733131D01*
X80612997Y-70644006D01*
X80612996Y-70644005D01*
X80612994Y-70644004D01*
X80536906Y-70605235D01*
X80451639Y-70561788D01*
X80451636Y-70561787D01*
X80279410Y-70505829D01*
X80100551Y-70477500D01*
X80100546Y-70477500D01*
X79919454Y-70477500D01*
X79919449Y-70477500D01*
X79740589Y-70505829D01*
X79568363Y-70561787D01*
X79568360Y-70561788D01*
X79407002Y-70644006D01*
X79260505Y-70750441D01*
X79260500Y-70750445D01*
X79132445Y-70878500D01*
X79132441Y-70878505D01*
X79026006Y-71025002D01*
X78943788Y-71186360D01*
X78943787Y-71186363D01*
X78887829Y-71358589D01*
X78862473Y-71518678D01*
X78832544Y-71581813D01*
X78773232Y-71618744D01*
X78703369Y-71617746D01*
X78645137Y-71579136D01*
X78617527Y-71518678D01*
X78595245Y-71378000D01*
X78592171Y-71358591D01*
X78536211Y-71186361D01*
X78536211Y-71186360D01*
X78465937Y-71048442D01*
X78453996Y-71025006D01*
X78435681Y-70999797D01*
X78347558Y-70878505D01*
X78347554Y-70878500D01*
X78219499Y-70750445D01*
X78219494Y-70750441D01*
X78072997Y-70644006D01*
X78072996Y-70644005D01*
X78072994Y-70644004D01*
X77996906Y-70605235D01*
X77911639Y-70561788D01*
X77911636Y-70561787D01*
X77739410Y-70505829D01*
X77560551Y-70477500D01*
X77560546Y-70477500D01*
X77379454Y-70477500D01*
X77379449Y-70477500D01*
X77200589Y-70505829D01*
X77028363Y-70561787D01*
X77028360Y-70561788D01*
X76867002Y-70644006D01*
X76720505Y-70750441D01*
X76720500Y-70750445D01*
X76592445Y-70878500D01*
X76592441Y-70878505D01*
X76486006Y-71025002D01*
X76403788Y-71186360D01*
X76403787Y-71186363D01*
X76347829Y-71358589D01*
X76322473Y-71518678D01*
X76292544Y-71581813D01*
X76233232Y-71618744D01*
X76163369Y-71617746D01*
X76105137Y-71579136D01*
X76077527Y-71518678D01*
X76055245Y-71378000D01*
X76052171Y-71358591D01*
X75996211Y-71186361D01*
X75996211Y-71186360D01*
X75925937Y-71048442D01*
X75913996Y-71025006D01*
X75895681Y-70999797D01*
X75807558Y-70878505D01*
X75807554Y-70878500D01*
X75679499Y-70750445D01*
X75679494Y-70750441D01*
X75532997Y-70644006D01*
X75532996Y-70644005D01*
X75532994Y-70644004D01*
X75456906Y-70605235D01*
X75371639Y-70561788D01*
X75371636Y-70561787D01*
X75199410Y-70505829D01*
X75020551Y-70477500D01*
X75020546Y-70477500D01*
X74839454Y-70477500D01*
X74839449Y-70477500D01*
X74660589Y-70505829D01*
X74488363Y-70561787D01*
X74488360Y-70561788D01*
X74327002Y-70644006D01*
X74180505Y-70750441D01*
X74180500Y-70750445D01*
X74052445Y-70878500D01*
X74052441Y-70878505D01*
X73946006Y-71025002D01*
X73863788Y-71186360D01*
X73863787Y-71186363D01*
X73807829Y-71358589D01*
X73782473Y-71518678D01*
X73752544Y-71581813D01*
X73693232Y-71618744D01*
X73623369Y-71617746D01*
X73565137Y-71579136D01*
X73537527Y-71518678D01*
X73515245Y-71378000D01*
X73512171Y-71358591D01*
X73456211Y-71186361D01*
X73456211Y-71186360D01*
X73385937Y-71048442D01*
X73373996Y-71025006D01*
X73355681Y-70999797D01*
X73267558Y-70878505D01*
X73267554Y-70878500D01*
X73139499Y-70750445D01*
X73139494Y-70750441D01*
X72992997Y-70644006D01*
X72992996Y-70644005D01*
X72992994Y-70644004D01*
X72916906Y-70605235D01*
X72831639Y-70561788D01*
X72831636Y-70561787D01*
X72659410Y-70505829D01*
X72480551Y-70477500D01*
X72480546Y-70477500D01*
X72299454Y-70477500D01*
X72299449Y-70477500D01*
X72120589Y-70505829D01*
X71948363Y-70561787D01*
X71948360Y-70561788D01*
X71787002Y-70644006D01*
X71640505Y-70750441D01*
X71640500Y-70750445D01*
X71512445Y-70878500D01*
X71512441Y-70878505D01*
X71424318Y-70999797D01*
X71368988Y-71042463D01*
X71299375Y-71048442D01*
X71237580Y-71015836D01*
X71203223Y-70954998D01*
X71200000Y-70926912D01*
X71200000Y-70730172D01*
X71199999Y-70730155D01*
X71193598Y-70670627D01*
X71193596Y-70670620D01*
X71143354Y-70535913D01*
X71143350Y-70535906D01*
X71057190Y-70420812D01*
X71057187Y-70420809D01*
X70942093Y-70334649D01*
X70942086Y-70334645D01*
X70807379Y-70284403D01*
X70807372Y-70284401D01*
X70747844Y-70278000D01*
X70100000Y-70278000D01*
X70100000Y-71194988D01*
X70042993Y-71162075D01*
X69915826Y-71128000D01*
X69784174Y-71128000D01*
X69657007Y-71162075D01*
X69600000Y-71194988D01*
X69600000Y-70278000D01*
X68952155Y-70278000D01*
X68892627Y-70284401D01*
X68892620Y-70284403D01*
X68757913Y-70334645D01*
X68757906Y-70334649D01*
X68642812Y-70420809D01*
X68642809Y-70420812D01*
X68556649Y-70535906D01*
X68556645Y-70535913D01*
X68506403Y-70670620D01*
X68506401Y-70670627D01*
X68500000Y-70730155D01*
X67500500Y-70730155D01*
X67500500Y-65177484D01*
X70039500Y-65177484D01*
X70039500Y-65378515D01*
X70078715Y-65575661D01*
X70078718Y-65575673D01*
X70155640Y-65761381D01*
X70155647Y-65761394D01*
X70267325Y-65928530D01*
X70267328Y-65928534D01*
X70409465Y-66070671D01*
X70409469Y-66070674D01*
X70576605Y-66182352D01*
X70576618Y-66182359D01*
X70762326Y-66259281D01*
X70762331Y-66259283D01*
X70959484Y-66298499D01*
X70959488Y-66298500D01*
X70959489Y-66298500D01*
X71160512Y-66298500D01*
X71160513Y-66298499D01*
X71357669Y-66259283D01*
X71543388Y-66182356D01*
X71710531Y-66070674D01*
X71852674Y-65928531D01*
X71964356Y-65761388D01*
X72041283Y-65575669D01*
X72080500Y-65378511D01*
X72080500Y-65177489D01*
X72041283Y-64980331D01*
X72002027Y-64885558D01*
X71964359Y-64794618D01*
X71964352Y-64794605D01*
X71852674Y-64627469D01*
X71852671Y-64627465D01*
X71710534Y-64485328D01*
X71710530Y-64485325D01*
X71543394Y-64373647D01*
X71543381Y-64373640D01*
X71357673Y-64296718D01*
X71357661Y-64296715D01*
X71160515Y-64257500D01*
X71160511Y-64257500D01*
X70959489Y-64257500D01*
X70959484Y-64257500D01*
X70762338Y-64296715D01*
X70762326Y-64296718D01*
X70576618Y-64373640D01*
X70576605Y-64373647D01*
X70409469Y-64485325D01*
X70409465Y-64485328D01*
X70267328Y-64627465D01*
X70267325Y-64627469D01*
X70155647Y-64794605D01*
X70155640Y-64794618D01*
X70078718Y-64980326D01*
X70078715Y-64980338D01*
X70039500Y-65177484D01*
X67500500Y-65177484D01*
X67500500Y-63457835D01*
X67520185Y-63390796D01*
X67572989Y-63345041D01*
X67642147Y-63335097D01*
X67705703Y-63364122D01*
X67723242Y-63384003D01*
X67723462Y-63383823D01*
X67727328Y-63388534D01*
X67869465Y-63530671D01*
X67869469Y-63530674D01*
X68036605Y-63642352D01*
X68036618Y-63642359D01*
X68222326Y-63719281D01*
X68222331Y-63719283D01*
X68419484Y-63758499D01*
X68419488Y-63758500D01*
X68419489Y-63758500D01*
X68620512Y-63758500D01*
X68620513Y-63758499D01*
X68817669Y-63719283D01*
X69003388Y-63642356D01*
X69170531Y-63530674D01*
X69312674Y-63388531D01*
X69424356Y-63221388D01*
X69501283Y-63035669D01*
X69540500Y-62838511D01*
X69540500Y-62637489D01*
X69501283Y-62440331D01*
X69501281Y-62440326D01*
X69424359Y-62254618D01*
X69424352Y-62254605D01*
X69312674Y-62087469D01*
X69312671Y-62087465D01*
X69170534Y-61945328D01*
X69170530Y-61945325D01*
X69003394Y-61833647D01*
X69003381Y-61833640D01*
X68817673Y-61756718D01*
X68817661Y-61756715D01*
X68620515Y-61717500D01*
X68620511Y-61717500D01*
X68419489Y-61717500D01*
X68419484Y-61717500D01*
X68222338Y-61756715D01*
X68222326Y-61756718D01*
X68036618Y-61833640D01*
X68036605Y-61833647D01*
X67869469Y-61945325D01*
X67869465Y-61945328D01*
X67727328Y-62087465D01*
X67723462Y-62092177D01*
X67722459Y-62091354D01*
X67673985Y-62131862D01*
X67604660Y-62140566D01*
X67541633Y-62110409D01*
X67504917Y-62050964D01*
X67500500Y-62018164D01*
X67500500Y-61361753D01*
X92376000Y-61361753D01*
X92376000Y-61574246D01*
X92409242Y-61784127D01*
X92409242Y-61784130D01*
X92474904Y-61986217D01*
X92571375Y-62175550D01*
X92610728Y-62229716D01*
X93243037Y-61597408D01*
X93260075Y-61660993D01*
X93325901Y-61775007D01*
X93418993Y-61868099D01*
X93533007Y-61933925D01*
X93596590Y-61950962D01*
X92964282Y-62583269D01*
X92964282Y-62583270D01*
X93018449Y-62622624D01*
X93207780Y-62719094D01*
X93236705Y-62728492D01*
X93294381Y-62767929D01*
X93321580Y-62832287D01*
X93309667Y-62901134D01*
X93262424Y-62952610D01*
X93254685Y-62956908D01*
X93123004Y-63024004D01*
X92976505Y-63130441D01*
X92976500Y-63130445D01*
X92848445Y-63258500D01*
X92848441Y-63258505D01*
X92742006Y-63405002D01*
X92659788Y-63566360D01*
X92659787Y-63566363D01*
X92603829Y-63738589D01*
X92575500Y-63917448D01*
X92575500Y-64098551D01*
X92603829Y-64277410D01*
X92659787Y-64449636D01*
X92659788Y-64449639D01*
X92742006Y-64610997D01*
X92848441Y-64757494D01*
X92848445Y-64757499D01*
X92976500Y-64885554D01*
X92976505Y-64885558D01*
X93104287Y-64978396D01*
X93123006Y-64991996D01*
X93224780Y-65043853D01*
X93254684Y-65059090D01*
X93305480Y-65107065D01*
X93322275Y-65174886D01*
X93299737Y-65241021D01*
X93245022Y-65284472D01*
X93236708Y-65287506D01*
X93207781Y-65296905D01*
X93018439Y-65393380D01*
X92964282Y-65432727D01*
X92964282Y-65432728D01*
X93596591Y-66065037D01*
X93533007Y-66082075D01*
X93418993Y-66147901D01*
X93325901Y-66240993D01*
X93260075Y-66355007D01*
X93243037Y-66418591D01*
X92610728Y-65786282D01*
X92610727Y-65786282D01*
X92571380Y-65840439D01*
X92474904Y-66029782D01*
X92409242Y-66231869D01*
X92409242Y-66231872D01*
X92376000Y-66441753D01*
X92376000Y-66654246D01*
X92409242Y-66864127D01*
X92409242Y-66864130D01*
X92474904Y-67066217D01*
X92571375Y-67255550D01*
X92610728Y-67309716D01*
X93243037Y-66677408D01*
X93260075Y-66740993D01*
X93325901Y-66855007D01*
X93418993Y-66948099D01*
X93533007Y-67013925D01*
X93596591Y-67030962D01*
X92995971Y-67631581D01*
X93074711Y-67748895D01*
X93075920Y-67752729D01*
X93078844Y-67755491D01*
X93086343Y-67785778D01*
X93095727Y-67815529D01*
X93094671Y-67819408D01*
X93095638Y-67823312D01*
X93085573Y-67852844D01*
X93077383Y-67882947D01*
X93074397Y-67885640D01*
X93073100Y-67889447D01*
X93028051Y-67928483D01*
X93018440Y-67933380D01*
X92964282Y-67972727D01*
X92964282Y-67972728D01*
X93596591Y-68605037D01*
X93533007Y-68622075D01*
X93418993Y-68687901D01*
X93325901Y-68780993D01*
X93260075Y-68895007D01*
X93243037Y-68958591D01*
X92610728Y-68326282D01*
X92610727Y-68326282D01*
X92571380Y-68380439D01*
X92474904Y-68569782D01*
X92409242Y-68771869D01*
X92409242Y-68771872D01*
X92376000Y-68981753D01*
X92376000Y-69194246D01*
X92409242Y-69404127D01*
X92409242Y-69404130D01*
X92474904Y-69606217D01*
X92571375Y-69795550D01*
X92610728Y-69849716D01*
X93243037Y-69217408D01*
X93260075Y-69280993D01*
X93325901Y-69395007D01*
X93418993Y-69488099D01*
X93533007Y-69553925D01*
X93596590Y-69570962D01*
X92964282Y-70203269D01*
X92964282Y-70203270D01*
X93018449Y-70242624D01*
X93207780Y-70339094D01*
X93236705Y-70348492D01*
X93294381Y-70387929D01*
X93321580Y-70452287D01*
X93309667Y-70521134D01*
X93262424Y-70572610D01*
X93254685Y-70576908D01*
X93123004Y-70644004D01*
X92976505Y-70750441D01*
X92976500Y-70750445D01*
X92848445Y-70878500D01*
X92848441Y-70878505D01*
X92742006Y-71025002D01*
X92659788Y-71186360D01*
X92659787Y-71186363D01*
X92603829Y-71358589D01*
X92575500Y-71537448D01*
X92575500Y-71718551D01*
X92603829Y-71897410D01*
X92659787Y-72069636D01*
X92659788Y-72069639D01*
X92715664Y-72179300D01*
X92734513Y-72216293D01*
X92742006Y-72230997D01*
X92848441Y-72377494D01*
X92848445Y-72377499D01*
X92976500Y-72505554D01*
X92976505Y-72505558D01*
X93086361Y-72585372D01*
X93123006Y-72611996D01*
X93199094Y-72650765D01*
X93284360Y-72694211D01*
X93284363Y-72694212D01*
X93363997Y-72720086D01*
X93456591Y-72750171D01*
X93539429Y-72763291D01*
X93635449Y-72778500D01*
X93635454Y-72778500D01*
X93816551Y-72778500D01*
X93903259Y-72764765D01*
X93995409Y-72750171D01*
X94167639Y-72694211D01*
X94328994Y-72611996D01*
X94475501Y-72505553D01*
X94603553Y-72377501D01*
X94709996Y-72230994D01*
X94792211Y-72069639D01*
X94848171Y-71897409D01*
X94862765Y-71805259D01*
X94876500Y-71718551D01*
X94876500Y-71537448D01*
X94851245Y-71378000D01*
X94848171Y-71358591D01*
X94792211Y-71186361D01*
X94792211Y-71186360D01*
X94721937Y-71048442D01*
X94709996Y-71025006D01*
X94691681Y-70999797D01*
X94603558Y-70878505D01*
X94603554Y-70878500D01*
X94475499Y-70750445D01*
X94475494Y-70750441D01*
X94328995Y-70644004D01*
X94197314Y-70576908D01*
X94146519Y-70528934D01*
X94129724Y-70461113D01*
X94152262Y-70394978D01*
X94206977Y-70351527D01*
X94215295Y-70348492D01*
X94244217Y-70339095D01*
X94433554Y-70242622D01*
X94487716Y-70203270D01*
X94487717Y-70203270D01*
X93855408Y-69570962D01*
X93918993Y-69553925D01*
X94033007Y-69488099D01*
X94126099Y-69395007D01*
X94191925Y-69280993D01*
X94208962Y-69217408D01*
X94841270Y-69849717D01*
X94841270Y-69849716D01*
X94880622Y-69795554D01*
X94977095Y-69606217D01*
X95042757Y-69404130D01*
X95042757Y-69404127D01*
X95076000Y-69194246D01*
X95076000Y-68981753D01*
X95042757Y-68771872D01*
X95042757Y-68771869D01*
X94977095Y-68569782D01*
X94880624Y-68380449D01*
X94841270Y-68326282D01*
X94841269Y-68326282D01*
X94208962Y-68958590D01*
X94191925Y-68895007D01*
X94126099Y-68780993D01*
X94033007Y-68687901D01*
X93918993Y-68622075D01*
X93855409Y-68605037D01*
X94487716Y-67972728D01*
X94433550Y-67933375D01*
X94423954Y-67928486D01*
X94373157Y-67880512D01*
X94356361Y-67812692D01*
X94378897Y-67746556D01*
X94423954Y-67707514D01*
X94433554Y-67702622D01*
X94487716Y-67663270D01*
X94487717Y-67663270D01*
X93855408Y-67030962D01*
X93918993Y-67013925D01*
X94033007Y-66948099D01*
X94126099Y-66855007D01*
X94191925Y-66740993D01*
X94208962Y-66677408D01*
X94841270Y-67309717D01*
X94841270Y-67309716D01*
X94880622Y-67255554D01*
X94977095Y-67066217D01*
X95042757Y-66864130D01*
X95042757Y-66864127D01*
X95076000Y-66654246D01*
X95076000Y-66441753D01*
X95042757Y-66231872D01*
X95042757Y-66231869D01*
X94977095Y-66029782D01*
X94880624Y-65840449D01*
X94841270Y-65786282D01*
X94841269Y-65786282D01*
X94208962Y-66418590D01*
X94191925Y-66355007D01*
X94126099Y-66240993D01*
X94033007Y-66147901D01*
X93918993Y-66082075D01*
X93855409Y-66065037D01*
X94487716Y-65432728D01*
X94433550Y-65393375D01*
X94244217Y-65296904D01*
X94215292Y-65287506D01*
X94157616Y-65248068D01*
X94130418Y-65183710D01*
X94142333Y-65114863D01*
X94189577Y-65063388D01*
X94197315Y-65059090D01*
X94328994Y-64991996D01*
X94475501Y-64885553D01*
X94603553Y-64757501D01*
X94709996Y-64610994D01*
X94792211Y-64449639D01*
X94848171Y-64277409D01*
X94862765Y-64185259D01*
X94876500Y-64098551D01*
X94876500Y-63917448D01*
X94851324Y-63758499D01*
X94848171Y-63738591D01*
X94792211Y-63566361D01*
X94792211Y-63566360D01*
X94763740Y-63510484D01*
X94709996Y-63405006D01*
X94666429Y-63345041D01*
X94603558Y-63258505D01*
X94603554Y-63258500D01*
X94475499Y-63130445D01*
X94475494Y-63130441D01*
X94328995Y-63024004D01*
X94197314Y-62956908D01*
X94146519Y-62908934D01*
X94129724Y-62841113D01*
X94152262Y-62774978D01*
X94206977Y-62731527D01*
X94215295Y-62728492D01*
X94244217Y-62719095D01*
X94433554Y-62622622D01*
X94487716Y-62583270D01*
X94487717Y-62583270D01*
X93855408Y-61950962D01*
X93918993Y-61933925D01*
X94033007Y-61868099D01*
X94126099Y-61775007D01*
X94191925Y-61660993D01*
X94208962Y-61597408D01*
X94841270Y-62229717D01*
X94841270Y-62229716D01*
X94880622Y-62175554D01*
X94977095Y-61986217D01*
X95042757Y-61784130D01*
X95042757Y-61784127D01*
X95076000Y-61574246D01*
X95076000Y-61361753D01*
X95042757Y-61151872D01*
X95042757Y-61151869D01*
X94977095Y-60949782D01*
X94880624Y-60760449D01*
X94841270Y-60706282D01*
X94841269Y-60706282D01*
X94208962Y-61338590D01*
X94191925Y-61275007D01*
X94126099Y-61160993D01*
X94033007Y-61067901D01*
X93918993Y-61002075D01*
X93855409Y-60985037D01*
X94487716Y-60352728D01*
X94433550Y-60313375D01*
X94432786Y-60312986D01*
X94432546Y-60312759D01*
X94429396Y-60310829D01*
X94429801Y-60310167D01*
X94381988Y-60265013D01*
X94365191Y-60197192D01*
X94387726Y-60131057D01*
X94442440Y-60087604D01*
X94489076Y-60078499D01*
X94620864Y-60078499D01*
X94620879Y-60078497D01*
X94620882Y-60078497D01*
X94645987Y-60075586D01*
X94645988Y-60075585D01*
X94645991Y-60075585D01*
X94748765Y-60030206D01*
X94828206Y-59950765D01*
X94873585Y-59847991D01*
X94876500Y-59822865D01*
X94876499Y-58033136D01*
X94876497Y-58033117D01*
X94873586Y-58008012D01*
X94873585Y-58008010D01*
X94873585Y-58008009D01*
X94828206Y-57905235D01*
X94748765Y-57825794D01*
X94748763Y-57825793D01*
X94645992Y-57780415D01*
X94620865Y-57777500D01*
X92831143Y-57777500D01*
X92831117Y-57777502D01*
X92806012Y-57780413D01*
X92806008Y-57780415D01*
X92703235Y-57825793D01*
X92623794Y-57905234D01*
X92578415Y-58008006D01*
X92578415Y-58008008D01*
X92575500Y-58033131D01*
X92575500Y-59822856D01*
X92575502Y-59822882D01*
X92578413Y-59847987D01*
X92578415Y-59847991D01*
X92623793Y-59950764D01*
X92623794Y-59950765D01*
X92703235Y-60030206D01*
X92806009Y-60075585D01*
X92831135Y-60078500D01*
X92962923Y-60078499D01*
X93029960Y-60098183D01*
X93075715Y-60150987D01*
X93085659Y-60220145D01*
X93056635Y-60283701D01*
X93022387Y-60310507D01*
X93022590Y-60310838D01*
X93019715Y-60312599D01*
X93019239Y-60312972D01*
X93018451Y-60313373D01*
X93018440Y-60313380D01*
X92964282Y-60352727D01*
X92964282Y-60352728D01*
X93596591Y-60985037D01*
X93533007Y-61002075D01*
X93418993Y-61067901D01*
X93325901Y-61160993D01*
X93260075Y-61275007D01*
X93243037Y-61338591D01*
X92610728Y-60706282D01*
X92610727Y-60706282D01*
X92571380Y-60760439D01*
X92474904Y-60949782D01*
X92409242Y-61151869D01*
X92409242Y-61151872D01*
X92376000Y-61361753D01*
X67500500Y-61361753D01*
X67500500Y-60097484D01*
X70039500Y-60097484D01*
X70039500Y-60298515D01*
X70078715Y-60495661D01*
X70078718Y-60495673D01*
X70155640Y-60681381D01*
X70155647Y-60681394D01*
X70267325Y-60848530D01*
X70267328Y-60848534D01*
X70409465Y-60990671D01*
X70409469Y-60990674D01*
X70576605Y-61102352D01*
X70576618Y-61102359D01*
X70762326Y-61179281D01*
X70762331Y-61179283D01*
X70959484Y-61218499D01*
X70959488Y-61218500D01*
X70959489Y-61218500D01*
X71160512Y-61218500D01*
X71160513Y-61218499D01*
X71357669Y-61179283D01*
X71543388Y-61102356D01*
X71710531Y-60990674D01*
X71852674Y-60848531D01*
X71964356Y-60681388D01*
X72041283Y-60495669D01*
X72080500Y-60298511D01*
X72080500Y-60097489D01*
X72041283Y-59900331D01*
X72019603Y-59847991D01*
X71964359Y-59714618D01*
X71964352Y-59714605D01*
X71852674Y-59547469D01*
X71852671Y-59547465D01*
X71710534Y-59405328D01*
X71710530Y-59405325D01*
X71543394Y-59293647D01*
X71543381Y-59293640D01*
X71357673Y-59216718D01*
X71357661Y-59216715D01*
X71160515Y-59177500D01*
X71160511Y-59177500D01*
X70959489Y-59177500D01*
X70959484Y-59177500D01*
X70762338Y-59216715D01*
X70762326Y-59216718D01*
X70576618Y-59293640D01*
X70576605Y-59293647D01*
X70409469Y-59405325D01*
X70409465Y-59405328D01*
X70267328Y-59547465D01*
X70267325Y-59547469D01*
X70155647Y-59714605D01*
X70155640Y-59714618D01*
X70078718Y-59900326D01*
X70078715Y-59900338D01*
X70039500Y-60097484D01*
X67500500Y-60097484D01*
X67500500Y-58004427D01*
X67500816Y-57995581D01*
X67511318Y-57848748D01*
X67515130Y-57795436D01*
X67517646Y-57777938D01*
X67559356Y-57586199D01*
X67564333Y-57569248D01*
X67632911Y-57385385D01*
X67640259Y-57369298D01*
X67702815Y-57254734D01*
X67734291Y-57197089D01*
X67743845Y-57182221D01*
X67861448Y-57025123D01*
X67873020Y-57011769D01*
X68011769Y-56873020D01*
X68025123Y-56861448D01*
X68182221Y-56743845D01*
X68197089Y-56734291D01*
X68369298Y-56640258D01*
X68385385Y-56632911D01*
X68569248Y-56564333D01*
X68586199Y-56559356D01*
X68777938Y-56517646D01*
X68795436Y-56515130D01*
X68995582Y-56500816D01*
X69004428Y-56500500D01*
X69065892Y-56500500D01*
X93934108Y-56500500D01*
X93995572Y-56500500D01*
X94004418Y-56500816D01*
G37*
%TD.AperFunction*%
%TD*%
M02*
